<?xml version="1.0" encoding="UTF-8"?>
<svg width="16px" height="16px" viewBox="0 0 16 16" version="1.1" xmlns="http://www.w3.org/2000/svg" xmlns:xlink="http://www.w3.org/1999/xlink">
    <title>-mockplus-</title>
    <g id="页面-1" stroke="none" stroke-width="1" fill="none" fill-rule="evenodd">
        <g id="1.1.1-专利列表" transform="translate(-2074.000000, -405.000000)" fill="#D43C3F" fill-rule="nonzero">
            <g id="编组-9" transform="translate(74.000000, 274.000000)">
                <g id="-mockplus-" transform="translate(32.000000, 64.000000)">
                    <g id="任务标题备份-4" transform="translate(1956.000000, 9.000000)">
                        <g id="编组-5" transform="translate(0.000000, 42.000000)">
                            <g id="源列表备份" transform="translate(0.000000, 3.000000)">
                                <g id="DataEntry/Checkbox/Light/Normal备份-5" transform="translate(12.000000, 10.000000)">
                                    <g id="审核" transform="translate(0.000000, 3.000000)">
                                        <rect id="矩形" opacity="0" x="0" y="0" width="16" height="16"></rect>
                                        <path d="M12.6875,9.6640625 L10.8125,9.6640625 C10.7046875,9.5890625 10.603125,9.503125 10.5109375,9.4078125 C10.128125,9.0140625 10.1046875,8.6765625 10.1125,8.55 L10.1140625,8.4625 L10.1140625,8.459375 C10.1140625,8.421875 10.175,8.2421875 10.328125,7.98125 C10.3859375,7.8828125 10.446875,7.7859375 10.5109375,7.690625 C10.65,7.4796875 10.8015625,7.2734375 10.9578125,7.0765625 C11.5046875,6.425 11.8046875,5.5953125 11.8046875,4.7421875 C11.8046875,2.7453125 10.1953125,1.1046875 8.140625,1.0078125 L7.8609375,1.0078125 C5.796875,1.1046875 4.178125,2.7453125 4.178125,4.7421875 C4.1796875,5.6 4.4828125,6.4328125 5.03125,7.0890625 L5.059375,7.125 C5.209375,7.315625 5.3515625,7.5125 5.4875,7.7140625 C5.7609375,8.1296875 5.871875,8.4078125 5.86875,8.4578125 L5.86875,8.546875 C5.8765625,8.671875 5.8546875,9.003125 5.490625,9.390625 L5.46875,9.4125 C5.3828125,9.5015625 5.2828125,9.5875 5.16875,9.665625 L3.3,9.665625 C2.0515625,9.6640625 1.4953125,10.153125 1.4953125,11.25 L1.4953125,13.690625 C1.4953125,14.0359375 1.6296875,14.3609375 1.875,14.60625 C2.1203125,14.8484375 2.44375,14.984375 2.7875,14.984375 L13.196875,14.9625 C13.909375,14.959375 14.4859408,14.3828125 14.4859408,13.6703125 L14.4859408,11.25 C14.4875,10.153125 13.9328125,9.6625 12.6875,9.6640625 Z M2.4515625,13.690625 L2.4515625,11.2515625 C2.4515625,10.95625 2.4890625,10.8171875 2.590625,10.7375 C2.7,10.653125 2.9,10.61875 3.3,10.61875 L5.45625,10.61875 L5.571875,10.54375 C5.784375,10.4109375 5.98125,10.253125 6.1578125,10.075 C6.7796875,9.434375 6.84375,8.8109375 6.8265625,8.4921875 C6.8390625,8.165625 6.6765625,7.7734375 6.2875,7.18125 C6.12291099,6.93384641 5.94721044,6.69401776 5.7609375,6.4625 C5.359375,5.978125 5.1390625,5.36875 5.1375,4.7390625 C5.1375,3.2546875 6.3453125,2.034375 7.8859375,1.9609375 L8.1171875,1.9609375 C9.6484375,2.034375 10.846875,3.253125 10.846875,4.7375 C10.846875,5.36875 10.6234375,5.9796875 10.21875,6.4640625 C10.040625,6.6875 9.8703125,6.9203125 9.7125,7.1578125 C9.6390625,7.26875 9.56875,7.3828125 9.5015625,7.4984375 C9.2515625,7.9296875 9.1484375,8.2265625 9.1578125,8.4921875 C9.140625,8.809375 9.2046875,9.4328125 9.825,10.0734375 C10.0015625,10.253125 10.1984375,10.4109375 10.4109375,10.5453125 L10.5296875,10.6203125 L12.69375,10.6203125 C13.459375,10.6203125 13.53125,10.73125 13.53125,11.25 L13.53125,13.66875 C13.53125,13.7578125 13.496875,13.8421875 13.4328125,13.90625 C13.3703125,13.96875 13.284375,14.0046875 13.1953125,14.0046875 L2.7859375,14.0265625 C2.696875,14.0265625 2.6109375,13.9921875 2.5484375,13.928125 C2.4875,13.8671875 2.453125,13.78125 2.4515625,13.690625 L2.4515625,13.690625 Z" id="形状"></path>
                                        <path d="M5.96328125,11.99375 L10.0320313,11.99375 C10.2965239,11.99375 10.5109375,12.2081636 10.5109375,12.4726562 C10.5109375,12.7371489 10.2965239,12.9515625 10.0320313,12.9515625 L5.96328125,12.9515625 C5.69878863,12.9515625 5.484375,12.7371489 5.484375,12.4726562 C5.484375,12.2081636 5.69878863,11.99375 5.96328125,11.99375 Z" id="路径"></path>
                                        <path d="M3.90747768,9.65714286 L11.5210938,9.65714286 C11.7855864,9.65714286 12,9.87155649 12,10.1360491 C12,10.4005417 11.7855864,10.6149554 11.5210938,10.6149554 L3.90747768,10.6149554 C3.64298506,10.6149554 3.42857143,10.4005417 3.42857143,10.1360491 C3.42857143,9.87155649 3.64298506,9.65714286 3.90747768,9.65714286 Z" id="路径备份"></path>
                                    </g>
                                </g>
                            </g>
                        </g>
                    </g>
                </g>
            </g>
        </g>
    </g>
</svg>